#define Letter_width 5
#define Letter_height 8
static unsigned char Letter_bits[] = {
   0x09, 0x15, 0x15, 0x17, 0x15, 0x15, 0x09, 0x00 };
